<svg width="41" height="40" viewBox="0 0 41 40" fill="none" xmlns="http://www.w3.org/2000/svg">
<ellipse cx="20.1639" cy="20" rx="20.1639" ry="20" fill="#801ED7"/>
<path fill-rule="evenodd" clip-rule="evenodd" d="M20.2195 6.08536C12.5946 6.08536 6.41336 12.2666 6.41336 19.8915C6.41336 27.5164 12.5946 33.6976 20.2195 33.6976C27.8444 33.6976 34.0256 27.5164 34.0256 19.8915C34.0256 12.2666 27.8444 6.08536 20.2195 6.08536ZM3.60669 19.8915C3.60669 10.7165 11.0445 3.27869 20.2195 3.27869C29.3945 3.27869 36.8322 10.7165 36.8322 19.8915C36.8322 29.0665 29.3945 36.5042 20.2195 36.5042C11.0445 36.5042 3.60669 29.0665 3.60669 19.8915Z" fill="white"/>
<path d="M21.4507 30.249C24.3614 29.9258 26.1278 27.2468 26.8766 25.8625C27.6117 24.4673 28.03 22.9789 28.1975 21.5348C28.2564 21.0975 28.289 20.71 28.298 20.3496C28.3279 19.1962 28.1523 18.2093 27.762 17.3302C26.9155 15.4262 25.4262 14.4285 23.3347 14.3651C22.3017 14.3334 21.2795 14.5616 20.366 15.0233C20.5905 14.1351 21.2325 11.486 21.5846 8.88665C21.639 8.48738 21.5312 8.1044 21.2832 7.80835C21.0369 7.51319 20.6811 7.34207 20.2818 7.32487C19.5421 7.29137 18.9192 7.82012 18.8242 8.55076C18.2936 12.6512 17.0306 17.9522 15.6816 21.7421C14.9808 23.7113 13.6581 25.3392 11.8573 26.4492C11.793 26.489 11.7015 26.5379 11.5866 26.5958C10.9265 26.9281 10.6205 27.6968 10.8758 28.3831C11.0171 28.7633 11.314 29.0675 11.6916 29.2187C12.0691 29.369 12.4937 29.3536 12.8577 29.1753C13.9831 28.6248 14.9799 27.8951 15.8219 27.006C16.8676 29.2658 18.6114 30.5632 21.4497 30.2481L21.4507 30.249ZM19.1419 26.7217C18.6413 26.2364 18.3434 25.5882 18.2565 24.7969C18.0138 22.604 18.6603 20.5832 20.1786 18.7906C20.5697 18.3288 21.0206 17.9576 21.5186 17.6878C21.9595 17.4488 22.4266 17.3338 22.8757 17.3338C23.6688 17.3338 24.404 17.6933 24.8304 18.3614C25.1709 18.8947 25.3564 19.5312 25.3972 20.3062C25.4126 20.604 25.4044 20.9083 25.3972 21.1527C25.3945 21.2442 25.3927 21.3284 25.3918 21.3999C25.093 23.4551 24.3343 25.0096 23.0034 26.2934C22.5199 26.7597 22.021 27.0666 21.4778 27.2296C20.5471 27.5103 19.782 27.3437 19.1419 26.7217Z" fill="white"/>
</svg>
