<svg xmlns="http://www.w3.org/2000/svg" width="515" height="501" fill="none" viewBox="0 0 515 501"><path fill="#DDD" d="M185.24 496.116c-25.404-9.805-44.07-33.826-45.554-62.751-1.274-25.509 10.845-48.627 30.402-62.205-66.99-33.499-107.193-62.219-110.012-64.28-25.896-18.612-36.275-52.221-25.395-82.211s40.507-49.132 72.25-46.748c.363.14.819.038 1.349.104-26.554-13.307-53.142-29.406-79.02-48.427-31.662-23.478-38.37-68.04-15.013-99.747s67.967-38.533 99.798-15.13c143.506 105.7 319.395 86.444 321.173 86.158 30.297-3.594 59.39 12.498 72.606 39.836 13.169 27.459 7.499 60.156-14.151 81.68-7.14 6.974-48.881 45.622-135.65 72.729 9.213 3.139 18.761 6.129 28.477 9.045 25.667 7.683 44.829 28.977 49.677 55.309s-5.348 53.111-26.509 69.405c-8.731 6.776-88.387 66.232-194.922 71.811-10.372.583-20.266-1.151-29.339-4.652z"/></svg>