<svg xmlns="http://www.w3.org/2000/svg" width="557" height="501" fill="none" viewBox="0 0 557 501"><path fill="#DDD" d="M302.525 4.416c-33.035-7.476-72.253-3.33-104.796 2.048-35.529 5.872-74.225 15.32-109.561 24.503-34.692 9.015-55.507 44.448-46.492 79.139 9.016 34.692 44.448 55.507 79.14 46.492a2531 2531 0 0 1 18.357-4.702c-39.566 17.664-67.71 24.225-97.406 35.883-28.935 11.36-45.752 41.641-40.103 72.208 5.649 30.566 32.178 52.836 63.261 53.104 21.144.183 43.994-1.353 65.889-3.294a301 301 0 0 0-4.803 4.587c-12.888 12.596-27.58 29.266-36.467 49.162-9.622 21.544-15.651 56.486 8.165 88.058l.568.746c39.172 50.835 101.835 52.076 142.912 44.749 44.469-7.933 89.974-29.346 125.419-56.345 32.374-24.66 72.079-66.219 75.556-120.342 1.093-17.013-1.596-33.634-7.862-49.142 31.688-16.065 60.695-29.751 82.678-39.3 32.876-14.281 47.95-52.511 33.669-85.387s-52.51-47.95-85.386-33.669c-36.223 15.734-88.665 41.114-142.453 70.244 12.69-13.136 24.522-27.724 34.963-43.944l-.001-.001c32.616-50.657 6.223-120.09-53.654-134.427l-.025-.006z"/></svg>