<svg xmlns="http://www.w3.org/2000/svg" width="578" height="500" fill="none" viewBox="0 0 578 500"><path fill="#DDD" d="M91.218 9.854c24.277-14.017 55.59-13.444 79.726 4.065 21.263 15.47 31.953 40.126 30.191 64.573 70.144-32.02 119.144-45.666 122.617-46.592 31.653-8.718 65.291 4.693 82.289 32.798 16.997 28.106 13.184 64.218-9.245 88.111-.346.201-.56.632-.956 1.015 27.827-12.675 57.914-23.571 89.882-32.009 39.279-10.192 79.32 13.241 89.628 52.453s-13.058 79.369-52.386 89.744c-177.456 46.655-275.721 200.035-276.641 201.646-16.705 26.599-48.405 39.506-78.853 32.423-30.514-7.199-53.048-32.879-56.3-64.142-.972-10.228-4.958-68.659 29.409-155.707-8.47 5.353-17.038 11.07-25.655 16.97-22.747 15.599-52.196 17.188-76.429 4.049C14.263 286.113-.604 260.631.02 233.142c.214-11.376 4.064-113.636 68.458-202.606 6.236-8.687 14.021-15.494 22.692-20.5z"/></svg>