<svg xmlns="http://www.w3.org/2000/svg" width="615" height="501" fill="none" viewBox="0 0 615 501"><path fill="#DDD" d="M272.003 25.023C321.045.44 402.754-19.724 466.67 35.132l1.508 1.31 1.406 1.269a77 77 0 0 1 8.909 9.79c32.591 42.652 28.842 88.136 17.886 120.761 26.637-16.927 62.097-16.353 88.535 4.033 33.755 26.027 40.019 74.491 13.992 108.246l-1.478 1.903c-62.883 80.433-167.71 144.19-278.382 151.811-21.236 1.464-58.194 3.526-95.648-9.126a1572 1572 0 0 1-108.602 65.496c-37.36 20.519-84.28 6.867-104.8-30.493s-6.866-84.281 30.495-104.8a1416 1416 0 0 0 84.134-50.079c-1.924-10.031-3.132-19.946-3.801-29.436-2.711-38.437 2.571-83.764 19.243-118.976 27.046-57.13 78.466-105.013 131.936-131.818"/></svg>