<svg xmlns="http://www.w3.org/2000/svg" width="481" height="500" fill="none" viewBox="0 0 481 500"><path fill="#DDD" d="M378.395 8.491c33.399-18.295 75.305-6.05 93.6 27.349s6.051 75.307-27.348 93.602c-14.337 7.853-42.103 22.642-75.615 42.057 18.503 84.328-17.234 170.312-59.699 226.062-29.132 38.247-67.921 72.125-111.251 89.763-44.364 18.059-103.961 21.714-151.463-22.188C20.313 440.824 3.322 409.828.435 373.935c-2.742-34.075 7.851-64.829 21.387-89.615 20.23-37.042 52.957-71.437 87.581-101.376-28.74 1.964-56.783-14.355-68.407-42.442-14.563-35.188 2.158-75.518 37.345-90.081C153.15 19.46 231.41 30.517 287.78 59.247c41.975-24.73 76.239-42.88 90.616-50.756"/></svg>